HIERARCHY
ROOT Hips
{
	OFFSET 0.000000 0.000000 0.000000
	CHANNELS 6 Xposition Yposition Zposition Xrotation Yrotation Zrotation
	JOINT LeftUpLeg_virtual
	{
		OFFSET 0.000000 0.000000 0.000000
		CHANNELS 3 Xrotation Yrotation Zrotation
		JOINT LeftUpLeg
		{
			OFFSET 15.427100 -6.655098 0.678600
			CHANNELS 3 Xrotation Yrotation Zrotation
			JOINT LeftLeg
			{
				OFFSET 4.081073 -39.591068 13.024000
				CHANNELS 3 Xrotation Yrotation Zrotation
				JOINT LeftFoot
				{
					OFFSET -4.081074 -37.707932 -15.979700
					CHANNELS 3 Xrotation Yrotation Zrotation
					JOINT LeftToeBase
					{
						OFFSET 5.346399 -15.068900 20.645000
						CHANNELS 3 Xrotation Yrotation Zrotation
						JOINT LeftToe_End
						{
							OFFSET 2.754700 0.931300 11.300900
							CHANNELS 3 Xrotation Yrotation Zrotation
							End Site
							{
								OFFSET 0 0 0
							}
						}
					}
				}
			}
		}
	}
	JOINT RightUpLeg_virtual
	{
		OFFSET 0.000000 0.000000 0.000000
		CHANNELS 3 Xrotation Yrotation Zrotation
		JOINT RightUpLeg
		{
			OFFSET -15.569500 -6.655098 0.678600
			CHANNELS 3 Xrotation Yrotation Zrotation
			JOINT RightLeg
			{
				OFFSET -4.081825 -39.591045 13.023800
				CHANNELS 3 Xrotation Yrotation Zrotation
				JOINT RightFoot
				{
					OFFSET 4.081824 -37.707954 -15.979600
					CHANNELS 3 Xrotation Yrotation Zrotation
					JOINT RightToeBase
					{
						OFFSET -5.346400 -15.068900 20.645000
						CHANNELS 3 Xrotation Yrotation Zrotation
						JOINT RightToe_End
						{
							OFFSET -2.754700 0.931300 11.300900
							CHANNELS 3 Xrotation Yrotation Zrotation
							End Site
							{
								OFFSET 0 0 0
							}
						}
					}
				}
			}
		}
	}
	JOINT Spine_virtual
	{
		OFFSET 0.000000 0.000000 0.000000
		CHANNELS 3 Xrotation Yrotation Zrotation
		JOINT Spine
		{
			OFFSET -0.279200 12.230698 -2.892100
			CHANNELS 3 Xrotation Yrotation Zrotation
			JOINT Spine1
			{
				OFFSET -0.232667 10.192268 -1.242267
				CHANNELS 3 Xrotation Yrotation Zrotation
				JOINT Spine1_split
				{
					OFFSET -0.232667 10.192268 -1.242267
					CHANNELS 3 Xrotation Yrotation Zrotation
					JOINT Spine2
					{
						OFFSET -0.232667 10.192268 -1.242267
						CHANNELS 3 Xrotation Yrotation Zrotation
						JOINT Neck_virtual
						{
							OFFSET 0.000000 0.000000 0.000000
							CHANNELS 3 Xrotation Yrotation Zrotation
							JOINT Neck
							{
								OFFSET -0.418800 17.814194 8.416900
								CHANNELS 3 Xrotation Yrotation Zrotation
								JOINT Head
								{
									OFFSET 0.000000 7.031097 3.806800
									CHANNELS 3 Xrotation Yrotation Zrotation
									JOINT HeadTop_End
									{
										OFFSET 0.000000 24.646606 12.978600
										CHANNELS 3 Xrotation Yrotation Zrotation
										End Site
										{
											OFFSET 0 0 0
										}
									}
								}
							}
						}
						JOINT LeftShoulder_virtual
						{
							OFFSET 0.000000 0.000000 0.000000
							CHANNELS 3 Xrotation Yrotation Zrotation
							JOINT LeftShoulder
							{
								OFFSET 8.476499 7.247704 -3.868750
								CHANNELS 3 Xrotation Yrotation Zrotation
								JOINT LeftShoulder_split
								{
									OFFSET 8.476499 7.247704 -3.868750
									CHANNELS 3 Xrotation Yrotation Zrotation
									JOINT LeftArm
									{
										OFFSET 9.308998 -2.777710 0.208600
										CHANNELS 3 Xrotation Yrotation Zrotation
										JOINT LeftForeArm
										{
											OFFSET 29.972298 0.000000 0.000000
											CHANNELS 3 Xrotation Yrotation Zrotation
											JOINT LeftHand
											{
												OFFSET 26.026505 0.000000 0.000000
												CHANNELS 3 Xrotation Yrotation Zrotation
												End Site
												{
													OFFSET 0 0 0
												}
											}
										}
									}
								}
							}
						}
						JOINT RightShoulder_virtual
						{
							OFFSET 0.000000 0.000000 0.000000
							CHANNELS 3 Xrotation Yrotation Zrotation
							JOINT RightShoulder
							{
								OFFSET -7.570500 7.247704 -3.868750
								CHANNELS 3 Xrotation Yrotation Zrotation
								JOINT RightShoulder_split
								{
									OFFSET -7.570500 7.247704 -3.868750
									CHANNELS 3 Xrotation Yrotation Zrotation
									JOINT RightArm
									{
										OFFSET -9.308998 -2.777710 0.208500
										CHANNELS 3 Xrotation Yrotation Zrotation
										JOINT RightForeArm
										{
											OFFSET -29.972300 0.000000 0.000000
											CHANNELS 3 Xrotation Yrotation Zrotation
											JOINT RightHand
											{
												OFFSET -26.026505 0.000000 0.000000
												CHANNELS 3 Xrotation Yrotation Zrotation
												End Site
												{
													OFFSET 0 0 0
												}
											}
										}
									}
								}
							}
						}
					}
				}
			}
		}
	}
}
MOTION
Frames: 8
Frame Time: 0.03333333
11.593268 80.991745 76.406265 0.000000 0.000000 0.000000 163.407905 52.042633 -174.671023 -45.116879 4.407500 19.904525 28.570371 -30.438157 -0.616413 -0.153623 4.217239 -13.920740 4.716621 2.030414 -10.252928 0.000000 0.000000 0.000000 166.267295 46.322049 -179.238343 -20.527360 -30.335534 -27.382022 33.152587 -4.539589 7.249301 -16.716606 -5.497756 16.081537 5.630379 -0.456635 -0.085900 0.000000 0.000000 0.000000 165.555152 51.910414 -177.189970 16.939544 4.352693 -2.756724 10.806654 13.712217 -12.081237 0.546032 -5.734913 1.416963 0.000000 0.000000 0.000000 3.783437 13.114696 -10.311569 5.712770 4.202066 6.096098 -3.540247 9.505972 -7.483206 0.000000 0.000000 0.000000 2.819866 13.683006 -11.170114 0.922084 19.630037 -5.236643 -6.320053 -1.870019 -0.201246 21.116141 33.953417 -67.071351 -56.766252 -27.421242 -29.176417 0.000000 0.000000 0.000000 2.542300 12.998298 -11.013943 5.687038 14.052871 2.075595 -7.986682 -2.779082 0.571084 -55.888655 31.862703 69.379491 34.882599 30.222255 0.173248 0.000000 0.000000 0.000000 
11.160287 81.183411 73.945358 0.000000 0.000000 0.000000 162.108420 57.070004 -174.007019 -43.335040 2.899914 22.496336 30.995426 -29.448067 -0.747876 -2.951642 4.862907 -13.114952 4.567946 1.918439 -10.906687 0.000000 0.000000 0.000000 165.172443 50.822700 -178.466464 -22.745368 -28.826789 -26.263223 32.597040 -2.904546 6.241629 -12.508826 -3.375156 15.875692 2.989758 0.142795 -0.233307 0.000000 0.000000 0.000000 164.459562 56.644330 -176.767399 16.696283 4.731721 -1.684746 10.424645 13.097884 -12.235690 0.258883 -5.876745 1.508415 0.000000 0.000000 0.000000 3.606454 12.458485 -10.414063 4.493999 4.579270 5.246089 -2.493959 8.933543 -7.155285 0.000000 0.000000 0.000000 2.477157 13.044312 -11.262446 1.366085 18.090473 -8.163901 -6.392549 -1.444608 0.752099 15.707982 31.268743 -60.061180 -51.439896 -28.936165 -28.636082 0.000000 0.000000 0.000000 2.189240 12.310602 -11.083547 5.534648 13.321744 2.402305 -9.657844 -2.213421 0.764526 -48.356124 28.771277 66.645366 34.859810 37.713795 -0.505171 0.000000 0.000000 0.000000 
10.522746 80.986542 71.165253 0.000000 0.000000 0.000000 160.690049 62.173901 -173.115393 -41.460495 1.121334 24.593392 34.360271 -28.246556 -0.413984 -6.203739 5.307802 -12.314269 4.116045 1.955930 -11.044578 0.000000 0.000000 0.000000 163.892780 55.487050 -177.264555 -24.754187 -26.350515 -25.312433 32.428014 -0.877288 5.045631 -8.727724 -1.125176 17.435142 -0.458759 0.438183 0.181479 0.000000 0.000000 0.000000 163.565545 61.728443 -176.542946 16.441286 4.899252 -0.965913 9.867830 12.268285 -12.363893 0.117196 -5.655832 1.490102 0.000000 0.000000 0.000000 3.256738 11.701092 -10.520316 3.205225 4.829536 5.230314 -1.867864 8.277535 -6.315641 0.000000 0.000000 0.000000 1.884538 12.302090 -11.293119 1.536865 15.689981 -10.699543 -6.575132 -1.112509 1.457339 9.716531 27.897501 -51.405790 -45.263681 -30.640290 -27.651186 0.000000 0.000000 0.000000 1.499418 11.478794 -11.071907 5.262298 11.928929 2.658392 -11.358843 -1.479624 0.243247 -40.624562 24.481454 62.438823 34.591961 48.319798 -0.964835 0.000000 0.000000 0.000000 
9.702828 80.493774 67.930031 0.000000 0.000000 0.000000 158.574139 66.983959 -171.193159 -39.707793 -0.677722 25.932159 37.801177 -26.532059 0.104420 -9.727490 5.564288 -11.356337 3.437285 2.124566 -10.636997 0.000000 0.000000 0.000000 162.148732 60.223240 -175.314359 -26.096799 -22.969771 -24.271760 32.690365 1.171808 3.592651 -6.881666 0.590350 19.686974 -3.344894 0.373714 1.198099 0.000000 0.000000 0.000000 162.399782 66.880885 -175.858670 16.191435 4.718484 -0.579537 9.090662 11.184909 -12.425014 0.178123 -4.891621 1.643061 0.000000 0.000000 0.000000 2.733272 10.783670 -10.611372 2.028942 4.871563 5.780429 -2.189798 7.348508 -4.895255 0.000000 0.000000 0.000000 0.985905 11.406984 -11.236822 1.377587 12.731661 -12.221395 -6.601854 -0.742372 1.917181 3.211599 23.514658 -42.031324 -38.075747 -32.506967 -25.754543 0.000000 0.000000 0.000000 0.492518 10.482017 -10.982629 4.910472 10.008751 2.771164 -12.503991 -0.168827 -0.770434 -33.964611 18.939797 57.504169 33.591594 61.245651 -0.734160 0.000000 0.000000 0.000000 
8.912220 80.075714 64.320152 0.000000 0.000000 0.000000 154.500832 71.476769 -166.935001 -38.238196 -2.306649 26.539470 40.545652 -24.288470 0.476225 -13.027453 5.465071 -10.355071 2.485130 2.388204 -9.861491 0.000000 0.000000 0.000000 159.263810 65.285530 -171.995023 -26.606657 -18.932205 -23.108084 33.327232 2.517029 2.023590 -8.163434 0.918259 20.667594 -3.136357 0.042537 2.854663 0.000000 0.000000 0.000000 159.920205 71.873486 -173.507705 15.922849 4.151217 -0.382364 8.121631 9.864501 -12.359908 0.285807 -4.284406 1.673698 0.000000 0.000000 0.000000 1.999717 9.646309 -10.641765 1.162503 4.778364 6.516489 -3.580677 6.004061 -3.002464 0.000000 0.000000 0.000000 -0.103493 10.278907 -11.065196 0.973568 9.558060 -12.516574 -6.752208 -0.523316 1.877849 -2.936677 17.768925 -33.141645 -29.238909 -33.956108 -22.098556 0.000000 0.000000 0.000000 -0.719299 9.253234 -10.832176 4.469761 7.721104 2.730280 -12.809633 1.241754 -2.134145 -28.986981 12.860558 52.622731 30.222091 75.006228 1.712362 0.000000 0.000000 0.000000 
8.143713 80.045906 60.344093 0.000000 0.000000 0.000000 146.562828 75.571904 -158.569685 -37.103169 -3.677509 26.453779 42.299392 -21.457734 0.557047 -15.636134 5.084214 -9.344344 1.488991 2.686623 -9.016022 0.000000 0.000000 0.000000 154.306186 70.404374 -166.588177 -26.874674 -14.764805 -22.075508 33.708124 2.587087 0.542899 -11.992743 -0.387808 19.392027 0.712707 -0.288949 4.947751 0.000000 0.000000 0.000000 153.850749 76.700402 -167.283176 15.549894 3.248205 -0.240863 7.001924 8.313755 -12.103157 0.470184 -3.396075 1.349184 0.000000 0.000000 0.000000 1.080896 8.287628 -10.569585 0.816092 4.683705 7.019135 -5.813497 4.264800 -0.916942 0.000000 0.000000 0.000000 -1.247035 8.885359 -10.773187 0.480831 6.304116 -11.708924 -6.606024 -0.522152 1.368212 -7.920335 10.492830 -25.994542 -18.937483 -33.929760 -16.594498 0.000000 0.000000 0.000000 -1.902221 7.783251 -10.602083 4.053157 5.353482 2.562811 -12.456010 1.602542 -3.478069 -25.440665 7.322548 48.245816 -7.815809 87.616656 38.725205 0.000000 0.000000 0.000000 
7.458300 80.438286 55.820805 0.000000 0.000000 0.000000 131.174876 79.095517 -142.628270 -36.425792 -4.622252 25.779518 43.359356 -17.949290 0.357177 -17.616950 4.648817 -7.865872 1.059078 2.902987 -8.541820 0.000000 0.000000 0.000000 144.975451 75.479362 -156.884514 -27.012085 -10.846653 -21.174053 33.513276 1.596177 -0.578446 -16.372303 -2.482977 16.678596 5.148028 -0.540239 6.984047 0.000000 0.000000 0.000000 139.166265 81.005162 -152.241556 15.185370 2.172005 -0.051997 5.893763 6.666644 -11.638262 0.622735 -2.474452 0.871106 0.000000 0.000000 0.000000 0.097314 6.792207 -10.308399 1.110723 4.736455 6.988977 -8.398194 2.433394 0.992075 0.000000 0.000000 0.000000 -2.240529 7.263055 -10.335917 0.039226 3.355936 -10.283508 -5.940405 -0.644038 0.750674 -11.791729 1.849729 -21.357713 -8.393803 -32.189913 -10.270345 0.000000 0.000000 0.000000 -2.906377 6.195930 -10.220605 3.694966 3.325135 2.418912 -11.240873 0.696673 -4.410198 -22.922304 3.071205 44.741209 -135.055298 80.597462 164.809555 0.000000 0.000000 0.000000 
6.959404 81.310936 50.883080 0.000000 0.000000 0.000000 101.921579 81.332766 -112.813169 -35.950708 -4.650988 24.734214 43.924824 -13.764787 -0.114605 -19.220185 4.304365 -6.036584 1.374702 3.033368 -8.520331 0.000000 0.000000 0.000000 125.498674 79.885223 -137.064999 -26.941391 -7.769649 -20.500219 32.714137 0.031817 -1.280416 -18.996633 -4.464934 14.368625 6.950110 -0.934804 8.571700 0.000000 0.000000 0.000000 102.468424 83.837888 -115.122470 14.827043 1.132318 0.210996 4.955581 5.068033 -10.957762 0.968443 -1.866649 0.357599 0.000000 0.000000 0.000000 -0.861761 5.309318 -9.808939 2.034318 4.973906 6.408695 -10.735826 0.871231 2.496531 0.000000 0.000000 0.000000 -2.968766 5.573102 -9.730088 -0.326913 0.926815 -8.554950 -5.175805 -0.514253 -0.103272 -15.028498 -7.300317 -19.388284 0.635202 -29.540199 -4.508987 0.000000 0.000000 0.000000 -3.636744 4.631172 -9.650115 3.446499 2.030344 2.383870 -9.945115 -1.200225 -4.769673 -21.173658 0.539393 42.109530 -140.761361 72.711510 169.237471 0.000000 0.000000 0.000000 
